<svg width="57" height="57" viewBox="0 0 57 57" fill="none" xmlns="http://www.w3.org/2000/svg">
<rect x="1.75391" y="1.18848" width="54" height="54" rx="6" stroke="#2284EA" stroke-width="2"/>
<g clip-path="url(#clip0_5_140)">
<path d="M48.7539 29.3604H46.332V25.8447C46.332 21.3215 42.6521 17.6416 38.1289 17.6416H29.9258V15.0182C31.2898 14.5344 32.2695 13.2318 32.2695 11.7041C32.2695 9.76559 30.6924 8.18848 28.7539 8.18848C26.8154 8.18848 25.2383 9.76559 25.2383 11.7041C25.2383 13.2318 26.218 14.5344 27.582 15.0182V17.6416H19.3789C14.8557 17.6416 11.1758 21.3215 11.1758 25.8447V29.3604H8.75391V31.7041H11.1758V35.2197C11.1758 39.7429 14.8557 43.4229 19.3789 43.4229H25.2383V48.1885H32.2695V43.4229H38.1289C42.6521 43.4229 46.332 39.7429 46.332 35.2197V31.7041H48.7539V29.3604ZM28.7539 10.5322C29.4001 10.5322 29.9258 11.0579 29.9258 11.7041C29.9258 12.3503 29.4001 12.876 28.7539 12.876C28.1077 12.876 27.582 12.3503 27.582 11.7041C27.582 11.0579 28.1077 10.5322 28.7539 10.5322ZM29.9258 45.8447H27.582V43.4229H29.9258V45.8447ZM43.9883 35.2197C43.9883 38.4506 41.3598 41.0791 38.1289 41.0791C35.8094 41.0791 21.743 41.0791 19.3789 41.0791C16.148 41.0791 13.5195 38.4506 13.5195 35.2197C13.5195 33.2382 13.5195 27.8374 13.5195 25.8447C13.5195 22.6139 16.148 19.9854 19.3789 19.9854H38.1289C41.3598 19.9854 43.9883 22.6139 43.9883 25.8447V35.2197Z" fill="#2284EA"/>
<path d="M25.2383 28.1885C25.2383 26.25 23.6612 24.6729 21.7227 24.6729C19.7841 24.6729 18.207 26.25 18.207 28.1885C18.207 30.127 19.7841 31.7041 21.7227 31.7041C23.6612 31.7041 25.2383 30.127 25.2383 28.1885ZM21.7227 29.3604C21.0765 29.3604 20.5508 28.8346 20.5508 28.1885C20.5508 27.5423 21.0765 27.0166 21.7227 27.0166C22.3688 27.0166 22.8945 27.5423 22.8945 28.1885C22.8945 28.8346 22.3688 29.3604 21.7227 29.3604Z" fill="#2284EA"/>
<path d="M35.7852 24.6729C33.8466 24.6729 32.2695 26.25 32.2695 28.1885C32.2695 30.127 33.8466 31.7041 35.7852 31.7041C37.7237 31.7041 39.3008 30.127 39.3008 28.1885C39.3008 26.25 37.7237 24.6729 35.7852 24.6729ZM35.7852 29.3604C35.139 29.3604 34.6133 28.8346 34.6133 28.1885C34.6133 27.5423 35.139 27.0166 35.7852 27.0166C36.4313 27.0166 36.957 27.5423 36.957 28.1885C36.957 28.8346 36.4313 29.3604 35.7852 29.3604Z" fill="#2284EA"/>
<path d="M29.9258 36.3916H27.582C26.2897 36.3916 25.2383 35.3402 25.2383 34.0479H22.8945C22.8945 36.6325 24.9973 38.7354 27.582 38.7354H29.9258C32.5105 38.7354 34.6133 36.6325 34.6133 34.0479H32.2695C32.2695 35.3402 31.2181 36.3916 29.9258 36.3916Z" fill="#2284EA"/>
</g>
<defs>
<clipPath id="clip0_5_140">
<rect width="40" height="40" fill="white" transform="translate(8.75391 8.18848)"/>
</clipPath>
</defs>
</svg>
