<svg width="24" height="24" viewBox="0 0 24 24" fill="none" xmlns="http://www.w3.org/2000/svg">
<g clip-path="url(#clip0_2010_69)">
<path d="M23.6654 6.28196C23.5394 5.23106 22.5491 4.22335 21.5129 4.08835C15.1942 3.30323 8.80463 3.30323 2.48798 4.08835C1.45091 4.22306 0.460541 5.23106 0.334562 6.28196C-0.111521 10.1335 -0.111521 13.8679 0.334562 17.7185C0.460541 18.7694 1.45091 19.7781 2.48798 19.9121C8.80463 20.6972 15.1944 20.6972 21.5129 19.9121C22.5491 19.7783 23.5394 18.7694 23.6654 17.7185C24.1115 13.8682 24.1115 10.1335 23.6654 6.28196ZM9.99985 16.001V8.00073L16 12.001L9.99985 16.001Z" fill="white"/>
</g>
<defs>
<clipPath id="clip0_2010_69">
<rect width="24" height="24" fill="white"/>
</clipPath>
</defs>
</svg>
